<?xml version="1.0" encoding="iso-8859-1"?>
<!-- Generator: Adobe Illustrator 19.0.0, SVG Export Plug-In . SVG Version: 6.00 Build 0)  -->
<svg version="1.1" id="Capa_1" xmlns="http://www.w3.org/2000/svg" xmlns:xlink="http://www.w3.org/1999/xlink" x="0px" y="0px"
	 viewBox="0 0 490 490" style="enable-background:new 0 0 490 490;" xml:space="preserve">
<g>
	<path d="M457.237,268.54c0-55.995-37.268-103.405-88.283-118.842V72.963c-30.834-16.626-61.672-22.16-89.061-22.16
		c-54.542,0-95.416,21.944-95.416,21.944s-40.88-21.941-95.415-21.944C61.669,50.801,30.84,56.334,0,72.963v277.614
		c0,0,40.52-21.943,95.174-21.943c27.332,0,58.192,5.483,89.302,21.943c14.627-7.738,29.188-12.98,43.368-16.438
		c21.963,35.094,60.861,58.561,105.232,58.561c25.538,0,49.291-7.767,69.048-21.04l65.983,67.537L490,417.784l-64.788-66.315
		C445.047,329.457,457.237,300.431,457.237,268.54z M30.625,306.681V92.404c18.308-7.292,37.892-10.977,58.434-10.976
		c42.756,0.003,75.954,15.833,80.111,17.899v211.435c-23.53-8.321-48.256-12.754-73.996-12.754
		C70.577,298.008,48.457,301.916,30.625,306.681z M214.75,306.119c-5.027,1.378-10.016,2.88-14.955,4.551V99.324
		c4.712-2.335,37.702-17.897,80.097-17.897c20.544,0,40.129,3.685,58.436,10.976v52.228c-1.755-0.074-3.479-0.266-5.251-0.266
		c-68.473,0-124.175,55.702-124.175,124.175C208.902,281.639,210.972,294.255,214.75,306.119z M261.841,329.022
		c-7.228-8.498-12.908-18.31-16.748-29.009c-3.537-9.853-5.565-20.418-5.565-31.473c0-51.583,41.96-93.55,93.55-93.55
		c1.773,0,3.503,0.168,5.251,0.266c10.786,0.603,21.111,2.947,30.625,6.915c33.817,14.105,57.658,47.495,57.658,86.368
		c0,51.575-41.96,93.535-93.535,93.535C304.553,362.075,279.013,349.209,261.841,329.022z"/>
</g>
<g>
</g>
<g>
</g>
<g>
</g>
<g>
</g>
<g>
</g>
<g>
</g>
<g>
</g>
<g>
</g>
<g>
</g>
<g>
</g>
<g>
</g>
<g>
</g>
<g>
</g>
<g>
</g>
<g>
</g>
</svg>
