<svg xmlns="http://www.w3.org/2000/svg" xmlns:xlink="http://www.w3.org/1999/xlink" version="1.1" x="0px" y="0px" viewBox="0 0 100 125" style="enable-background:new 0 0 100 100;" xml:space="preserve">
  <path d="M98.079,85.956l-2.587-2.587c1.271-1.913,1.963-4.161,1.963-6.503v-64.64C97.456,5.705,92.15,0.4,85.629,0.4H11.981  C5.46,0.4,0.154,5.705,0.154,12.226v64.64c0,6.521,5.305,11.827,11.827,11.827h65.08l9.141,9.141  c1.138,1.139,2.653,1.766,4.263,1.766s3.124-0.627,4.262-1.766l3.352-3.351c1.139-1.139,1.766-2.653,1.766-4.263  C99.846,88.609,99.219,87.094,98.079,85.956z M4.167,12.226c0-4.309,3.505-7.814,7.814-7.814h73.648  c4.309,0,7.814,3.505,7.814,7.814v6.82H4.167V12.226z M32.597,84.681V73.214c0-1.108-0.898-2.006-2.006-2.006  s-2.006,0.898-2.006,2.006V84.68H11.981c-4.309,0-7.814-3.505-7.814-7.814v-8.328H24.73c1.108,0,2.006-0.898,2.006-2.006  s-0.898-2.006-2.006-2.006H4.167V43.461H24.73c1.108,0,2.006-0.898,2.006-2.006s-0.898-2.006-2.006-2.006H4.167v-16.39h24.418  v12.465c0,1.108,0.898,2.006,2.006,2.006s2.006-0.898,2.006-2.006V23.059h60.846v14.383h-8.526c-1.108,0-2.006,0.898-2.006,2.006  s0.898,2.006,2.006,2.006h8.526v21.065h-8.526c-1.108,0-2.006,0.898-2.006,2.006c0,1.108,0.898,2.006,2.006,2.006h8.526v10.335  c0,1.264-0.305,2.487-0.873,3.581L79.347,67.224c4.6-9.527,2.96-21.336-4.932-29.229c-9.972-9.973-26.201-9.973-36.174,0  s-9.973,26.201,0,36.174c4.987,4.986,11.537,7.479,18.087,7.479c3.818,0,7.634-0.853,11.142-2.547l5.579,5.579L32.597,84.681  L32.597,84.681z M71.578,71.333c-8.409,8.408-22.091,8.408-30.501,0c-8.408-8.409-8.408-22.092,0-30.501  c4.204-4.204,9.727-6.306,15.25-6.306s11.046,2.102,15.25,6.306C79.986,49.241,79.986,62.924,71.578,71.333z M95.243,91.645  l-3.353,3.352c-0.761,0.763-2.089,0.761-2.851,0L71.042,77c1.184-0.833,2.316-1.772,3.374-2.83s1.997-2.19,2.83-3.374l17.997,17.997  c0.381,0.381,0.591,0.888,0.591,1.426C95.833,90.757,95.624,91.263,95.243,91.645z"/>
  <!-- <text x="0" y="115" fill="#000000" font-size="5px" font-weight="bold" font-family="'Helvetica Neue', Helvetica, Arial-Unicode, Arial, Sans-serif">Created by akash k</text><text x="0" y="120" fill="#000000" font-size="5px" font-weight="bold" font-family="'Helvetica Neue', Helvetica, Arial-Unicode, Arial, Sans-serif">from the Noun Project</text> -->
</svg>
