<svg xmlns="http://www.w3.org/2000/svg" xmlns:xlink="http://www.w3.org/1999/xlink" version="1.1" x="0px" y="0px" viewBox="0 0 14 17.5" enable-background="new 0 0 14 14" xml:space="preserve"><path fill-rule="evenodd" clip-rule="evenodd" d="M10,6v7c0,0.55,0.45,1,1,1h2c0.55,0,1-0.45,1-1V6c0-0.55-0.45-1-1-1h-2  C10.45,5,10,5.45,10,6z M5,1v12c0,0.55,0.45,1,1,1h2c0.55,0,1-0.45,1-1V1c0-0.55-0.45-1-1-1H6C5.45,0,5,0.45,5,1z M0,9v4  c0,0.55,0.45,1,1,1h2c0.55,0,1-0.45,1-1V9c0-0.55-0.45-1-1-1H1C0.45,8,0,8.45,0,9z"/>
<!-- <text x="0" y="29" fill="#000000" font-size="5px" font-weight="bold" font-family="'Helvetica Neue', Helvetica, Arial-Unicode, Arial, Sans-serif">Created by Dilon Choudhury</text><text x="0" y="34" fill="#000000" font-size="5px" font-weight="bold" font-family="'Helvetica Neue', Helvetica, Arial-Unicode, Arial, Sans-serif">from the Noun Project</text> -->
</svg>
