<svg xmlns="http://www.w3.org/2000/svg" version="1.1" x="0px" y="0px" viewBox="0 0 24 30" enable-background="new 0 0 24 24" xml:space="preserve"><path fill-rule="evenodd" clip-rule="evenodd" d="M7.905 3.068c-1.076 0-1.903 0.364-2.47 1.091 -0.571 0.729-0.858 1.787-0.858 3.18v0.083H1.686V0h20.629v7.422h-2.863V7.339c0-1.383-0.288-2.438-0.861-3.17 -0.577-0.734-1.408-1.101-2.495-1.101h-0.852v16.47c0 0.75 0.098 1.224 0.298 1.407 0.198 0.186 0.647 0.278 1.338 0.278h1.637V24H5.629v-2.776h1.52c0.658 0 1.089-0.076 1.296-0.233 0.211-0.158 0.313-0.644 0.313-1.452V3.068H7.905z"/>
<!-- <text x="0" y="39" fill="#000000" font-size="5px" font-weight="bold" font-family="'Helvetica Neue', Helvetica, Arial-Unicode, Arial, Sans-serif">Created by Plainicon</text><text x="0" y="44" fill="#000000" font-size="5px" font-weight="bold" font-family="'Helvetica Neue', Helvetica, Arial-Unicode, Arial, Sans-serif">from the Noun Project</text> -->
</svg>
