<svg xmlns="http://www.w3.org/2000/svg" xmlns:xlink="http://www.w3.org/1999/xlink" viewBox="10 25 80 50" version="1.1" x="0px" y="0px"><title>12.5</title><desc>Created with Sketch.</desc><g stroke="none" stroke-width="1" fill="none" fill-rule="evenodd"><g fill-rule="nonzero" fill="#000000"><path d="M84.3765045,45.2316481 L77.2336539,75.2316205 L77.2336539,75.2316205 C77.1263996,75.6820886 76.7239081,76 76.2608477,76 L17.8061496,76 C17.2538649,76 16.8061496,75.5522847 16.8061496,75 C16.8061496,74.9118841 16.817796,74.8241548 16.8407862,74.739091 L24.7487983,45.4794461 C24.9845522,44.607157 25.7758952,44.0012839 26.6794815,44.0012642 L83.4036764,44.0000276 L83.4036764,44.0000276 C83.9559612,44.0000156 84.4036862,44.4477211 84.4036982,45.0000058 C84.4036999,45.0780163 84.3945733,45.155759 84.3765045,45.2316481 L84.3765045,45.2316481 Z M15,24 L26.8277004,24 L26.8277004,24 C27.0616369,24 27.2881698,24.0820162 27.4678848,24.2317787 L31.799078,27.8411064 L31.799078,27.8411064 C32.697653,28.5899189 33.8303175,29 35,29 L75,29 C75.5522847,29 76,29.4477153 76,30 L76,38 L76,38 C76,38.5522847 75.5522847,39 75,39 L25.3280454,39 L25.3280454,39 C23.0690391,39 21.0906235,40.5146929 20.5012284,42.6954549 L14.7844016,63.8477139 L14.7844016,63.8477139 C14.7267632,64.0609761 14.5071549,64.1871341 14.2938927,64.1294957 C14.1194254,64.0823423 13.9982484,63.9240598 13.9982563,63.7433327 L13.9999561,25 L14,25 C14.0000242,24.4477324 14.4477324,24.0000439 15,24.0000439 L15,24 Z"/></g></g>
<!-- <text x="0" y="115" fill="#000000" font-size="5px" font-weight="bold" font-family="'Helvetica Neue', Helvetica, Arial-Unicode, Arial, Sans-serif">Created by Landan Lloyd</text><text x="0" y="120" fill="#000000" font-size="5px" font-weight="bold" font-family="'Helvetica Neue', Helvetica, Arial-Unicode, Arial, Sans-serif">from the Noun Project</text> -->
</svg>
