<svg xmlns="http://www.w3.org/2000/svg" xmlns:xlink="http://www.w3.org/1999/xlink" xml:space="preserve" version="1.1" viewBox="0 0 362 372.5" x="0px" y="0px" fill-rule="evenodd" clip-rule="evenodd"><g><path class="fil0" d="M24 0l54 0 0 114 206 0 0 -114 27 0 51 55 0 284c0,13 -10,23 -23,23l-315 0c-13,0 -24,-10 -24,-23l0 -315c0,-13 11,-24 24,-24zm24 152l266 0 0 189 -266 0 0 -189z"/><rect class="fil0" x="208" y="1" width="50.8754" height="78.352"/><rect class="fil0" x="79" y="181" width="204.238" height="22.2849"/><rect class="fil0" x="79" y="238" width="204.238" height="22.2849"/><rect class="fil0" x="79" y="294" width="204.238" height="22.2849"/></g>
<!-- <text x="0" y="377" fill="#000000" font-size="5px" font-weight="bold" font-family="'Helvetica Neue', Helvetica, Arial-Unicode, Arial, Sans-serif">Created by Ghiyats Mujtaba</text><text x="0" y="382" fill="#000000" font-size="5px" font-weight="bold" font-family="'Helvetica Neue', Helvetica, Arial-Unicode, Arial, Sans-serif">from the Noun Project</text> -->
</svg>
