<svg id="Capa_1" enable-background="new 0 0 512 512" height="512" viewBox="0 0 512 512" width="512" xmlns="http://www.w3.org/2000/svg"><g><path d="m106 120c8.284 0 15-6.716 15-15 0-41.355 33.645-75 75-75s75 33.645 75 75c0 8.284 6.716 15 15 15s15-6.716 15-15c0-57.897-47.103-105-105-105s-105 47.103-105 105c0 8.284 6.716 15 15 15z"/><path d="m159.292 510.417c2.083 1.041 4.379 1.583 6.708 1.583h210c3.979 0 7.793-1.58 10.607-4.394 22.179-22.179 34.393-51.667 34.393-83.032v-137.574c0-24.813-20.187-45-45-45-5.857 0-11.449 1.137-16.586 3.181-5.205-19.096-22.691-33.181-43.414-33.181-5.857 0-11.449 1.137-16.586 3.181-5.205-19.096-22.691-33.181-43.414-33.181-5.258 0-10.305.915-15 2.58v-79.58c0-24.813-20.187-45-45-45s-45 20.187-45 45v167h-15c-24.813 0-45 20.187-45 45v82.918c0 22.96 6.38 45.419 18.451 64.949 12.07 19.531 29.305 35.281 49.841 45.55zm-38.292-193.417c0-8.271 6.729-15 15-15h15v64.486c0 8.284 6.716 15 15 15s15-6.716 15-15v-261.486c0-8.271 6.729-15 15-15s15 6.729 15 15v212c0 8.284 6.716 15 15 15s15-6.716 15-15v-90c0-8.271 6.729-15 15-15s15 6.729 15 15v90c0 8.284 6.716 15 15 15s15-6.716 15-15v-60c0-8.271 6.729-15 15-15s15 6.729 15 15v60c0 8.284 6.716 15 15 15s15-6.716 15-15v-30c0-8.271 6.729-15 15-15s15 6.729 15 15v137.574c0 21.337-7.593 41.508-21.499 57.426h-199.824c-30.115-16.423-48.677-47.565-48.677-82.082z"/></g></svg>