<svg xmlns="http://www.w3.org/2000/svg" xmlns:xlink="http://www.w3.org/1999/xlink" version="1.1" x="0px" y="0px" viewBox="0 0 100 125" enable-background="new 0 0 100 100" xml:space="preserve"><path d="M100,95.833V4.167C100,0,100,0,95.833,0H4.167C0,0,0,0,0,4.167v91.667C0,100,0,100,4.167,100h91.667  C100,100,100,100,100,95.833z M70.833,20.833L50,45.833l-20.833-25H70.833z M70.833,79.167H29.167l20.833-25L70.833,79.167z   M43.75,0h12.5v20.833h-12.5V0z M56.25,100h-12.5V79.167h12.5V100z"/>
<!-- <text x="0" y="115" fill="#000000" font-size="5px" font-weight="bold" font-family="'Helvetica Neue', Helvetica, Arial-Unicode, Arial, Sans-serif">Created by Thomas Helbig</text><text x="0" y="120" fill="#000000" font-size="5px" font-weight="bold" font-family="'Helvetica Neue', Helvetica, Arial-Unicode, Arial, Sans-serif">from the Noun Project</text> -->
</svg>
